<svg width="126" height="141" viewBox="0 0 126 141" fill="none" xmlns="http://www.w3.org/2000/svg">
<path d="M48 0C46.9688 0 46.0117 0.527344 45.4609 1.39844C17.8359 45.1289 0.0703125 128.367 0.0703125 128.367C-0.144531 129.363 0.160157 130.398 0.878907 131.121L6.87891 137.121C7.29688 137.539 7.83203 137.824 8.41406 137.941L23.4141 140.941C24.0664 141.07 24.7461 140.98 25.3398 140.684L37.3398 134.684C38.3594 134.176 39 133.137 39 132C39 132 38.9766 130.914 39.7031 126.914C40.3984 123.098 41.8125 116.754 44.5234 107.125C51.4414 106.109 58.8203 105.031 66.3633 103.969C74.2773 102.852 75.4297 102.707 81.6562 101.848C86.9805 121.227 87 132 87 132C87 133.137 87.6406 134.176 88.6562 134.684L100.656 140.684C101.254 140.98 101.934 141.07 102.586 140.941L117.586 137.941C118.168 137.824 118.703 137.539 119.121 137.121L125.121 131.121C125.828 130.414 126.137 129.398 125.941 128.414C125.941 128.414 121.422 105.797 113.508 78.6641C105.594 51.5273 94.4297 19.9062 80.4023 1.20312C79.8359 0.445312 78.9453 0 78 0H48ZM49.7695 6H76.3359C88.9883 23.4922 100.059 54 107.742 80.3359C115.16 105.773 119.27 125.836 119.719 128.039L116.086 131.672C114.246 125.887 106.715 102.656 95.9688 76.7695C95.4961 75.625 94.3672 74.8906 93.1289 74.918C92.7695 74.9258 92.4141 75 92.0781 75.1328C92.0742 75.1367 92.0664 75.1367 92.0625 75.1406C60.4062 81.4922 40.0547 88 30.6445 91.3281C31.3477 89.5352 32.3086 87.6406 33.0391 85.8086L85.2188 59.7422L85.2578 59.7266L85.3398 59.6836C86.1172 59.2891 86.6836 58.5742 86.8945 57.7305C87.1016 56.8828 86.9336 55.9883 86.4297 55.2773C79.8594 41.4492 72.7383 28.5234 65.3555 19.1445C64.7891 18.4258 63.9258 18.0039 63.0117 18C62.0898 17.9961 61.2148 18.418 60.6445 19.1445C47.2891 36.1211 34.5898 64.707 25.0234 89.2148C16.332 111.484 10.957 128.43 9.92969 131.691L6.33984 128.098C6.91797 125.473 24.2383 47.4688 49.7695 6ZM62.9844 26.4023C68.7227 34.3711 74.4727 44.4805 79.8984 55.6953L74.5391 58.3711C71.7266 52.4297 68.7812 46.4609 65.6484 40.5898C65.1172 39.5898 64.0703 38.9766 62.9414 39C61.8555 39.0195 60.8633 39.6289 60.3516 40.5898C54.5742 51.4219 49.3359 62.5703 44.6914 73.2852L36.7578 77.2461C44.6836 58.3633 53.6484 39.3828 62.9844 26.4023ZM63.0547 48.8438C65.1367 52.9062 67.1992 56.9805 69.1602 61.0625L53.168 69.0469C56.2539 62.3516 59.6094 55.5586 63.0547 48.8438ZM91.3281 81.4531C93.0469 85.6484 94.6641 89.75 96.2148 93.7734C92.1055 94.332 81.4102 95.7852 65.5234 98.0273C49.8789 100.234 34.0664 102.52 25.9141 103.91C26.5313 102.242 27.1953 100.5 27.8516 98.7617C30.4766 97.707 51.0781 89.668 91.332 81.4531H91.3281ZM98.4062 99.5273C104.684 116.18 108.852 128.816 110.289 133.285L104.043 134.531C103.098 131.395 99.2734 119.043 92.2383 100.383C93.6992 100.184 97.7812 99.6133 98.4062 99.5273ZM38.0469 108.078C35.7656 116.375 34.4648 122.156 33.7969 125.836C33.2734 128.723 33.3203 129.156 33.2578 130.02L28.9805 132.16C30.6484 126.895 33.1406 119.348 37.2305 108.199C37.5273 108.152 37.7422 108.121 38.0469 108.078ZM30.4805 109.234C25.4805 123.098 22.8086 131.676 21.9492 134.523L15.7227 133.281C16.4727 130.902 18.9219 123.23 23.5156 110.426C24.9141 110.148 27.3242 109.734 30.4805 109.234ZM90.5508 113.117C93.9531 122.633 95.6328 127.781 97 132.148L92.8281 130.062C92.7812 128.402 92.5039 122.727 90.5508 113.117Z"/>
</svg>
