<svg width="1787" height="1474" viewBox="0 0 1787 1474" fill="none" xmlns="http://www.w3.org/2000/svg">
<path fill-rule="evenodd" clip-rule="evenodd" d="M736.688 1103.52C873.888 1103.52 993.434 1028.12 1056.34 916.549L1376.5 1102.04C1249.56 1323.85 1010.58 1473.37 736.688 1473.37C463.304 1473.37 224.691 1324.45 97.5684 1103.29C35.5086 995.326 0 870.156 0 736.68C0 329.828 329.819 0 736.688 0C1009.21 0 1247.15 148.006 1374.59 368.001L1053.96 552.636C990.413 443.376 872.17 369.85 736.688 369.85C534.096 369.85 369.85 534.087 369.85 736.68C369.784 800.532 386.466 863.285 418.231 918.675C481.462 1029.06 600.331 1103.52 736.688 1103.52ZM1702 778.065H1786.38V693.689H1702V609.305H1617.6V693.689H1533.22V778.065H1617.6V862.466H1702V778.065ZM1394.1 778.065H1478.47V693.689H1394.1V609.305H1309.71V693.689H1225.33V778.065H1309.71V862.466H1394.1V778.065Z"/>
</svg>
