<svg width="114" height="150" viewBox="0 0 114 150" fill="none" xmlns="http://www.w3.org/2000/svg">
<path d="M48 0C27 0 12 21 12 42C12 88.5 51 126 51 126C51 126 24 87 24 42C24 6 48 0 48 0ZM57 0C53.3711 0 48.0781 2.16797 43.7188 8.85938C39.3555 15.5508 36 26.6328 36 45C36 79.0469 53.4492 124.07 53.4492 124.07L54.1875 126H59.8125L60.5508 124.07C60.5508 124.07 78 79.0469 78 45C78 26.6328 74.6445 15.5508 70.2812 8.85938C65.9219 2.16797 60.6289 0 57 0ZM66 0C66 0 90 6 90 42C90 87 63 126 63 126C63 126 102 88.5 102 42C102 21 87 0 66 0ZM24 6C24 6 0 15 0 42C0 93 46.5 126 46.5 126C46.5 126 6 90 6 42C6 17.25 24 6 24 6ZM57 6C58.082 6 61.7969 6.83203 65.2578 12.1406C68.7148 17.4492 72 27.3672 72 45C72 73.1133 60.1719 106.781 57 115.559C53.8281 106.781 42 73.1133 42 45C42 27.3672 45.2852 17.4492 48.7422 12.1406C52.2031 6.83203 55.918 6 57 6ZM90 6C90 6 108 17.25 108 42C108 90 67.5 126 67.5 126C67.5 126 114 93 114 42C114 15 90 6 90 6ZM45 132C44.0781 132 43.2031 132.426 42.6367 133.152C42.0664 133.879 41.8633 134.832 42.0859 135.727L45.0859 147.727C45.4219 149.063 46.6211 150 48 150H66C67.3789 150 68.5781 149.063 68.9141 147.727L71.9141 135.727C72.1367 134.832 71.9336 133.879 71.3633 133.152C70.7969 132.426 69.9219 132 69 132H45ZM48.8438 138H65.1562L63.6562 144H50.3438L48.8438 138Z"/>
</svg>
