<svg width="96" height="141" viewBox="0 0 96 141" fill="none" xmlns="http://www.w3.org/2000/svg">
<path d="M25.5 0C11.4531 0 0 11.4531 0 25.5C0 35.4023 5.85156 43.7773 14.125 48C5.85156 52.2227 0 60.5977 0 70.5C0 80.4023 5.85156 88.7773 14.125 93C5.85156 97.2227 0 105.598 0 115.5C0 129.547 11.4531 141 25.5 141C39.5469 141 51 129.547 51 115.5V82.9688C55.0234 90.6055 62.7969 96 72 96C85.2188 96 96 85.2188 96 72C96 61.1328 88.5781 52.2852 78.6445 49.3477C88.6602 45.9063 96 36.6602 96 25.5C96 11.4531 84.5469 0 70.5 0H25.5ZM25.5 6H45V45H25.5C14.6953 45 6 36.3047 6 25.5C6 14.6953 14.6953 6 25.5 6ZM51 6H70.5C81.3047 6 90 14.6953 90 25.5C90 36.3047 81.3047 45 70.5 45H51V6ZM25.5 51H45V90H25.5C14.6953 90 6 81.3047 6 70.5C6 59.6953 14.6953 51 25.5 51ZM51 51H61.0312C56.7266 53.2695 53.2695 56.7266 51 61.0312V51ZM72 54C81.9766 54 90 62.0234 90 72C90 81.9766 81.9766 90 72 90C62.0234 90 54 81.9766 54 72C54 62.0234 62.0234 54 72 54ZM25.5 96H45V115.5C45 126.305 36.3047 135 25.5 135C14.6953 135 6 126.305 6 115.5C6 104.695 14.6953 96 25.5 96Z"/>
</svg>
