<svg width="138" height="138" viewBox="0 0 138 138" fill="none" xmlns="http://www.w3.org/2000/svg">
<path d="M134.379 60.2695L77.7305 3.62109C75.3281 1.20703 72.1641 0 69 0C65.8359 0 62.6719 1.20703 60.2695 3.62109L49.0664 14.8242L62.9297 28.6875C67.5352 25.9805 73.5352 26.5664 77.4844 30.5156C81.4336 34.4648 82.0078 40.4648 79.3008 45.0586L92.9297 58.6875C97.5352 55.9805 103.535 56.5664 107.484 60.5156C112.172 65.2031 112.172 72.7969 107.484 77.4844C102.797 82.1719 95.2031 82.1719 90.5156 77.4844C86.5664 73.5352 85.9805 67.5352 88.6875 62.9297L75.0586 49.3008C74.0859 49.875 73.0664 50.2969 72 50.5664V87.4219C77.168 88.7578 81 93.4102 81 99C81 105.633 75.6328 111 69 111C62.3672 111 57 105.633 57 99C57 93.4102 60.832 88.7578 66 87.4219V50.5664C63.9961 50.0508 62.0859 49.0547 60.5156 47.4844C56.5664 43.5352 55.9922 37.5352 58.6992 32.9414L44.8242 19.0664L3.62109 60.2695C-1.20703 65.0859 -1.20703 72.9141 3.62109 77.7305L60.2695 134.379C62.6719 136.793 65.8359 138 69 138C72.1641 138 75.3281 136.793 77.7305 134.379L134.379 77.7305C139.207 72.9141 139.207 65.0859 134.379 60.2695Z"/>
</svg>
