<svg width="124" height="138" viewBox="0 0 124 138" fill="none" xmlns="http://www.w3.org/2000/svg">
<path d="M122.82 0.972656C122.258 0.351562 121.449 0 120.605 0H3.39453C2.55078 0 1.74219 0.351562 1.17969 0.972656C0.605472 1.59375 0.324222 2.42578 0.406253 3.26953L10.9648 121.547C11.0703 122.789 11.9375 123.82 13.1328 124.172L61.168 137.883C61.4258 137.965 61.707 138 61.9883 138C62.2695 138 62.5391 137.965 62.8086 137.883L110.879 124.172C112.074 123.82 112.93 122.789 113.047 121.547L123.594 3.26953C123.676 2.42578 123.395 1.59375 122.82 0.972656ZM97.543 41.7539H41.1055L42.4531 57.0234H96.1836L92.1523 102.152L61.9766 111.27L61.6836 111.176L31.8594 102.141L30.2305 83.7539H44.8438L45.4766 90.8906L62.1523 94.3828L78.5234 90.8906L80.2695 71.5781H29.1406L25.168 27.1641H98.8438L97.543 41.7539Z"/>
</svg>
