<svg width="173" height="156" viewBox="0 0 173 156" fill="none" xmlns="http://www.w3.org/2000/svg">
<path d="M172.176 125.449C168.504 112.609 135.719 0 114.5 0C103.734 0 95.7344 12.9062 87.9961 25.3906C83.0352 33.3984 78.3477 40.9648 73.582 44.0625C71.5156 45.4102 69.6524 46.4453 67.8516 47.4453C64.2344 49.4531 60.8203 51.3516 57.0234 55.1523C52.4453 59.7266 49.1719 64.2383 48.1172 65.75L1.27735 83.8828C0.585943 84.1523 0.101567 84.7813 0.0156303 85.5195C-0.0703067 86.2539 0.257817 86.9766 0.871099 87.3984L36.6211 111.898L36.625 111.891C37.0273 112.164 37.5195 112.301 38.0234 112.23C38.1133 112.219 47.2852 111.031 55.6016 116.02C71.7188 125.688 72 153.723 72 154.008C72.0039 154.598 72.2695 155.16 72.7227 155.539C73.0859 155.84 73.5391 156 74 156C74.125 156 74.2422 155.988 74.3672 155.965C74.7891 155.887 84.7852 153.934 95.1172 143.715C101.348 137.555 105.996 130.363 110.102 124.02C116.117 114.719 121.312 106.688 129.117 105.453C140.102 103.715 161.566 120.762 168.898 127.473C169.559 128.078 170.539 128.172 171.305 127.699C172.062 127.23 172.418 126.312 172.176 125.449ZM59.8516 57.9805C63.2578 54.5742 66.2852 52.8906 69.7969 50.9414C71.6563 49.9063 73.5781 48.8398 75.7656 47.4141C81.2774 43.8281 86.1953 35.8945 91.3984 27.5C94.7656 22.0703 98.1836 16.5664 101.75 12.2461C97.2188 20.3047 92.2891 32.0703 86.3359 46.7617C80.8438 60.3008 75.6602 73.0898 71.0977 80.1094C71.0039 80.2578 70.8984 80.3984 70.8047 80.5469L52.1875 66.9414C53.6211 64.9844 56.3594 61.4687 59.8516 57.9805ZM37.9336 107.949L6.26172 86.2461L49.1172 69.6523L68.4766 83.8008C57.8477 97.6484 42.0195 105.961 37.9336 107.949ZM128.492 101.504C118.926 103.016 113.281 111.742 106.742 121.848C102.75 128.02 98.2227 135.016 92.3008 140.871C85.7031 147.395 79.2149 150.25 75.9024 151.379C75.4414 143.738 72.7969 121.672 57.6602 112.59C53.4609 110.07 49.125 108.922 45.5508 108.43C53.4023 103.883 66.1094 95.1289 74.4531 82.2852C79.2227 74.9414 84.4766 61.9805 90.0391 48.2617C97.6133 29.582 107.984 4 114.5 4C127.602 4 152.461 72.6602 166.457 120.102C157.699 112.906 139.863 99.6992 128.492 101.504Z"/>
<path d="M103.531 32.5C103.395 32.5 103.258 32.4727 103.129 32.4141C102.621 32.1953 102.395 31.6055 102.613 31.0977C105.531 24.4531 107.965 19.4336 110.055 15.7578C110.328 15.2773 110.938 15.1055 111.422 15.3789C111.898 15.6523 112.066 16.2656 111.797 16.7422C109.738 20.3633 107.336 25.3203 104.449 31.9023C104.281 32.2773 103.914 32.5 103.531 32.5Z"/>
<path d="M100.426 39.75C100.297 39.75 100.164 39.7227 100.039 39.6719C99.5313 39.457 99.2891 38.8711 99.5039 38.3633L100.352 36.3594C100.563 35.8516 101.148 35.6172 101.66 35.8281C102.168 36.043 102.406 36.6289 102.191 37.1367L101.348 39.1367C101.188 39.5195 100.816 39.75 100.426 39.75Z"/>
<path d="M80.8633 143.371C80.7266 143.371 80.5859 143.344 80.457 143.285C80.1524 143.148 79.9336 142.871 79.8789 142.539C77.9297 131.129 72.9414 115.926 60.2344 108.301C59.7344 108.004 59.2344 107.719 58.7383 107.453C58.4375 107.293 58.2383 106.988 58.2109 106.648C58.1836 106.309 58.3359 105.977 58.6094 105.773C67.0586 99.457 73.8008 92.4727 78.6484 85.0117C83.6797 77.2656 89.0195 64.0898 94.6758 50.1406C95.4805 48.1445 96.3242 46.1133 97.2383 43.8945L98.0781 41.8672C98.2891 41.3594 98.8711 41.1211 99.3828 41.3242C99.8945 41.5352 100.137 42.1211 99.9258 42.6328L99.0899 44.6563C98.1719 46.8711 97.332 48.9023 96.5274 50.8906C90.8359 64.9336 85.4609 78.1914 80.3203 86.1016C75.5859 93.3945 69.0977 100.234 61.0274 106.445C61.1055 106.492 61.1836 106.539 61.2617 106.586C74.0625 114.266 79.3828 129.074 81.5781 140.703C83.6055 139.316 85.5469 137.703 87.3789 135.891C89.6484 133.648 91.875 131.035 94.1914 127.902C94.5234 127.461 95.1484 127.367 95.5899 127.695C96.0352 128.023 96.1289 128.648 95.7969 129.094C93.4219 132.309 91.1289 134.996 88.7852 137.313C86.4766 139.598 83.9883 141.586 81.3945 143.219C81.2344 143.32 81.0469 143.371 80.8633 143.371Z"/>
<path d="M104.371 114.5C103.48 115.844 102.598 117.211 101.703 118.59Z"/>
<path d="M101.707 119.59C101.52 119.59 101.328 119.535 101.164 119.43C100.703 119.129 100.566 118.512 100.867 118.047C101.762 116.664 102.648 115.293 103.543 113.949C103.848 113.484 104.469 113.363 104.93 113.668C105.387 113.973 105.516 114.594 105.207 115.055C104.32 116.391 103.438 117.758 102.547 119.133C102.355 119.426 102.031 119.59 101.707 119.59Z"/>
<path d="M107.301 111.25C107.098 111.25 106.895 111.187 106.715 111.059C106.27 110.734 106.168 110.109 106.492 109.664C111.246 103.094 117.449 96.1602 127.398 94.5898C134.355 93.4805 143.066 96.0352 153.609 102.293C148.82 87.3281 144.039 73.5352 139.379 61.2656C136.516 53.7266 133.727 46.8398 131.086 40.7969C130.867 40.293 131.098 39.7031 131.602 39.4805C132.109 39.2617 132.699 39.4883 132.918 39.9961C135.57 46.0703 138.375 52.9883 141.25 60.5547C146.188 73.5547 151.262 88.2539 156.332 104.242C156.457 104.641 156.32 105.078 155.988 105.336C155.66 105.594 155.199 105.617 154.848 105.391C143.719 98.3984 134.68 95.4648 127.711 96.5664C118.488 98.0234 112.629 104.602 108.113 110.84C107.918 111.105 107.613 111.25 107.301 111.25Z"/>
<path d="M17.75 86.5L38.75 101.25Z"/>
<path d="M17.75 86.5L38.75 101.25" stroke="black" stroke-width="1.16279" stroke-miterlimit="10" stroke-linecap="round" stroke-linejoin="round"/>
</svg>
