<svg width="120" height="139" viewBox="0 0 120 139" fill="none" xmlns="http://www.w3.org/2000/svg">
<path d="M117.77 11L80.5352 1.09766C79.9609 0.945312 79.3477 0.96875 78.7891 1.16016L2.02344 27.5625C0.8125 27.9805 0 29.1172 0 30.3984V109.824C0 110.914 0.859375 112.035 2.02344 112.438L78.7891 138.84C79.1055 138.941 79.4336 139 79.7656 139C80.0234 139 80.2813 138.969 80.5352 138.902L117.77 129C119.086 128.648 120 127.461 120 126.102V13.8984C120 12.5391 119.086 11.3516 117.77 11ZM75 27.4805V116.078L9.46094 107.43L31.0312 99.5156C32.2148 99.0859 33 97.9609 33 96.6992V36.1445L75 27.4805Z"/>
</svg>
