<svg width="126" height="126" viewBox="0 0 126 126" fill="none" xmlns="http://www.w3.org/2000/svg">
<path d="M123 0H3C1.33984 0 0 1.34375 0 3V123C0 124.656 1.33984 126 3 126H123C124.66 126 126 124.656 126 123V3C126 1.34375 124.66 0 123 0ZM75 67.3359H60V114H48V67.3359H33V57H75V67.3359ZM78.3633 111.336V98.8633C78.3633 98.8633 85.1758 103.996 93.3516 103.996C101.527 103.996 101.211 98.6523 101.211 97.9219C101.211 90.1602 78.0469 90.1602 78.0469 72.9766C78.0469 49.6016 111.797 58.8242 111.797 58.8242L111.379 69.9375C111.379 69.9375 105.719 66.1602 99.3242 66.1602C92.9297 66.1602 90.625 69.1992 90.625 72.4492C90.625 80.8359 113.996 79.9961 113.996 96.8711C114 122.863 78.3633 111.336 78.3633 111.336Z"/>
</svg>
