<svg width="110" height="122" viewBox="0 0 110 122" fill="none" xmlns="http://www.w3.org/2000/svg">
<path d="M53.9297 0.00390959C53.9102 0.00390959 53.8867 0.011723 53.8672 0.011723C53.8164 0.015629 53.7656 0.0312538 53.7148 0.0390658C53.5195 0.0664098 53.332 0.125004 53.1484 0.210942C53.1172 0.226566 53.082 0.22266 53.0508 0.238285L1.05078 28.2383C0.882812 28.3281 0.738281 28.4414 0.605469 28.5703C0.578125 28.5977 0.5625 28.6328 0.535156 28.6602C0.40625 28.8047 0.300781 28.9648 0.214844 29.1367C0.1875 29.1953 0.160156 29.25 0.136719 29.3125C0.0546878 29.5313 0 29.7539 0 29.9922V90C0 90.1758 0.0273435 90.3516 0.0703115 90.5195C0.128906 90.7422 0.238281 90.9453 0.367188 91.1328C0.398438 91.1758 0.429688 91.2148 0.464844 91.2578C0.609375 91.4375 0.777344 91.5977 0.980469 91.7188C0.984375 91.7227 0.988281 91.7188 0.992188 91.7227C0.996094 91.7227 0.996094 91.7305 1 91.7305L52.9766 121.719C52.9805 121.719 52.9805 121.723 52.9844 121.723C52.9883 121.723 52.9883 121.727 52.9922 121.727L53 121.73C53.0898 121.781 53.1875 121.813 53.2812 121.848C53.3477 121.875 53.4102 121.91 53.4805 121.93H53.4844C53.6562 121.977 53.8242 122 53.9961 122H54C54.168 122 54.3438 121.977 54.5078 121.934C54.543 121.926 54.5703 121.906 54.6055 121.895C54.7305 121.855 54.8555 121.812 54.9727 121.746L108.973 91.7461C108.98 91.7422 108.984 91.7305 108.992 91.7266C109.012 91.7148 109.031 91.7148 109.051 91.7031C109.234 91.5898 109.387 91.4375 109.523 91.2773C109.559 91.2344 109.586 91.1914 109.617 91.1484C109.734 90.9805 109.832 90.8008 109.895 90.6055C109.902 90.5781 109.914 90.5586 109.922 90.5312C109.969 90.3594 110 90.1836 110 90V30C110 29.9844 109.992 29.9766 109.992 29.9609C109.988 29.7383 109.938 29.5313 109.863 29.3281C109.836 29.2578 109.812 29.1914 109.777 29.125C109.695 28.9609 109.594 28.8125 109.473 28.6758C109.441 28.6406 109.422 28.6016 109.391 28.5703C109.254 28.4375 109.098 28.3164 108.922 28.2266L54.9219 0.226566C54.8398 0.183598 54.75 0.164066 54.6641 0.132816C54.6133 0.117192 54.5703 0.0937536 54.5195 0.0820346C54.3281 0.0312536 54.1289 -0.00390241 53.9297 0.00390959ZM56 5.28907L103.594 29.9648L84.0312 39.75L56 24.8008V5.28907ZM52 5.35157V24.8008L24.0117 39.7266L6.19922 30.0117L52 5.35157ZM54 28.2695L79.75 42L54 55.7305L28.25 42L54 28.2695ZM106 33.2383V86.7656L86 76.7656V43.2344L106 33.2383ZM4 33.3711L22 43.1875V48C22 49.1055 22.8945 50 24 50C25.1055 50 26 49.1055 26 48V45.3359L52 59.1992V90.6641L26 76.8008V72C26 70.8945 25.1055 70 24 70C22.8945 70 22 70.8945 22 72V76.8125L4 86.6289V33.3711ZM82 45.3359V78C82 78.1016 82.0391 78.1836 82.0547 78.2812C82.0742 78.4258 82.0898 78.5664 82.1406 78.7031C82.1875 78.8242 82.2617 78.9219 82.3281 79.0312C82.3945 79.1406 82.4531 79.25 82.543 79.3477C82.6406 79.4531 82.7578 79.5273 82.875 79.6094C82.957 79.668 83.0156 79.7422 83.1055 79.7891L103.715 90.0938L56 116.602V59.1992L82 45.3359ZM24 54C22.8945 54 22 54.8945 22 56V64C22 65.1055 22.8945 66 24 66C25.1055 66 26 65.1055 26 64V56C26 54.8945 25.1055 54 24 54ZM76.2148 77.7969C75.957 77.8203 75.6992 77.8984 75.4531 78.0273C74.4805 78.5469 74.1055 79.7578 74.6289 80.7305L76.5117 84.2617C76.8711 84.9375 77.5625 85.3203 78.2773 85.3203C78.5937 85.3203 78.918 85.2461 79.2188 85.0859C80.1914 84.5664 80.5625 83.3516 80.0391 82.3789L78.1562 78.8477C77.7656 78.1172 76.9922 77.7266 76.2148 77.7969ZM24.0078 80.2734L52 95.1992V116.539L6.08203 90.0469L24.0078 80.2734ZM67.8789 82.2422C67.6211 82.2656 67.3633 82.3398 67.1172 82.4688C66.1445 82.9883 65.7734 84.2031 66.293 85.1758L68.1758 88.707C68.5391 89.3828 69.2305 89.7656 69.9453 89.7656C70.2617 89.7656 70.582 89.6875 70.8828 89.5312C71.8555 89.0117 72.2266 87.7969 71.707 86.8242L69.8242 83.293C69.4336 82.5625 68.6563 82.1719 67.8789 82.2422ZM59.5469 86.6836C59.2891 86.707 59.0313 86.7852 58.7852 86.9141C57.8086 87.4336 57.4414 88.6484 57.9609 89.6211L59.8438 93.1484C60.2031 93.8242 60.8945 94.207 61.6094 94.207C61.9258 94.207 62.25 94.1328 62.5508 93.9727C63.5234 93.4531 63.8945 92.2383 63.3711 91.2656L61.4883 87.7344C61.1016 87.0039 60.3242 86.6133 59.5469 86.6836Z"/>
</svg>
